<svg id="visual" viewBox="0 0 900 675" width="900" height="675" xmlns="http://www.w3.org/2000/svg" xmlns:xlink="http://www.w3.org/1999/xlink" version="1.1"><path d="M0 410L60 410L60 442L120 442L120 427L180 427L180 294L240 294L240 308L300 308L300 312L360 312L360 293L420 293L420 384L480 384L480 314L540 314L540 286L600 286L600 375L660 375L660 381L720 381L720 321L780 321L780 303L840 303L840 380L900 380L900 401L900 676L900 676L840 676L840 676L780 676L780 676L720 676L720 676L660 676L660 676L600 676L600 676L540 676L540 676L480 676L480 676L420 676L420 676L360 676L360 676L300 676L300 676L240 676L240 676L180 676L180 676L120 676L120 676L60 676L60 676L0 676Z" fill="#F7CADF"></path><path d="M0 431L60 431L60 447L120 447L120 438L180 438L180 401L240 401L240 414L300 414L300 429L360 429L360 349L420 349L420 477L480 477L480 384L540 384L540 444L600 444L600 410L660 410L660 462L720 462L720 383L780 383L780 371L840 371L840 469L900 469L900 465L900 676L900 676L840 676L840 676L780 676L780 676L720 676L720 676L660 676L660 676L600 676L600 676L540 676L540 676L480 676L480 676L420 676L420 676L360 676L360 676L300 676L300 676L240 676L240 676L180 676L180 676L120 676L120 676L60 676L60 676L0 676Z" fill="#F5EFF7"></path><path d="M0 387L60 387L60 417L120 417L120 506L180 506L180 395L240 395L240 508L300 508L300 514L360 514L360 420L420 420L420 461L480 461L480 428L540 428L540 465L600 465L600 485L660 485L660 514L720 514L720 450L780 450L780 470L840 470L840 452L900 452L900 389L900 676L900 676L840 676L840 676L780 676L780 676L720 676L720 676L660 676L660 676L600 676L600 676L540 676L540 676L480 676L480 676L420 676L420 676L360 676L360 676L300 676L300 676L240 676L240 676L180 676L180 676L120 676L120 676L60 676L60 676L0 676Z" fill="#CCEDED"></path><path d="M0 503L60 503L60 524L120 524L120 456L180 456L180 455L240 455L240 530L300 530L300 497L360 497L360 478L420 478L420 472L480 472L480 504L540 504L540 471L600 471L600 512L660 512L660 509L720 509L720 491L780 491L780 491L840 491L840 448L900 448L900 460L900 676L900 676L840 676L840 676L780 676L780 676L720 676L720 676L660 676L660 676L600 676L600 676L540 676L540 676L480 676L480 676L420 676L420 676L360 676L360 676L300 676L300 676L240 676L240 676L180 676L180 676L120 676L120 676L60 676L60 676L0 676Z" fill="#FDF1D3"></path><path d="M0 578L60 578L60 535L120 535L120 488L180 488L180 574L240 574L240 486L300 486L300 516L360 516L360 512L420 512L420 490L480 490L480 562L540 562L540 565L600 565L600 576L660 576L660 515L720 515L720 534L780 534L780 567L840 567L840 530L900 530L900 527L900 676L900 676L840 676L840 676L780 676L780 676L720 676L720 676L660 676L660 676L600 676L600 676L540 676L540 676L480 676L480 676L420 676L420 676L360 676L360 676L300 676L300 676L240 676L240 676L180 676L180 676L120 676L120 676L60 676L60 676L0 676Z" fill="#F5EFF7"></path><path d="M0 546L60 546L60 536L120 536L120 591L180 591L180 540L240 540L240 597L300 597L300 564L360 564L360 596L420 596L420 542L480 542L480 557L540 557L540 552L600 552L600 603L660 603L660 559L720 559L720 574L780 574L780 536L840 536L840 555L900 555L900 538L900 676L900 676L840 676L840 676L780 676L780 676L720 676L720 676L660 676L660 676L600 676L600 676L540 676L540 676L480 676L480 676L420 676L420 676L360 676L360 676L300 676L300 676L240 676L240 676L180 676L180 676L120 676L120 676L60 676L60 676L0 676Z" fill="#D2F4F0"></path><path d="M0 634L60 634L60 618L120 618L120 609L180 609L180 614L240 614L240 603L300 603L300 601L360 601L360 604L420 604L420 617L480 617L480 616L540 616L540 634L600 634L600 637L660 637L660 607L720 607L720 602L780 602L780 623L840 623L840 639L900 639L900 589L900 676L900 676L840 676L840 676L780 676L780 676L720 676L720 676L660 676L660 676L600 676L600 676L540 676L540 676L480 676L480 676L420 676L420 676L360 676L360 676L300 676L300 676L240 676L240 676L180 676L180 676L120 676L120 676L60 676L60 676L0 676Z" fill="#CCEDED"></path></svg>